<?xml version="1.0" encoding="UTF-8"?>
<svg width="70px" height="70px" viewBox="0 0 70 70" version="1.1" xmlns="http://www.w3.org/2000/svg" xmlns:xlink="http://www.w3.org/1999/xlink">
    <!-- Generator: Sketch 52.3 (67297) - http://www.bohemiancoding.com/sketch -->
    <title>Group 2</title>
    <desc>Created with Sketch.</desc>
    <defs>
        <circle id="path-1" cx="19" cy="19" r="19"></circle>
        <filter x="-35.5%" y="-35.5%" width="171.1%" height="171.1%" filterUnits="objectBoundingBox" id="filter-2">
            <feMorphology radius="0.5" operator="dilate" in="SourceAlpha" result="shadowSpreadOuter1"></feMorphology>
            <feOffset dx="0" dy="0" in="shadowSpreadOuter1" result="shadowOffsetOuter1"></feOffset>
            <feGaussianBlur stdDeviation="4" in="shadowOffsetOuter1" result="shadowBlurOuter1"></feGaussianBlur>
            <feColorMatrix values="0 0 0 0 0   0 0 0 0 0   0 0 0 0 0  0 0 0 0.158288043 0" type="matrix" in="shadowBlurOuter1"></feColorMatrix>
        </filter>
    </defs>
    <g id="Symbols" stroke="none" stroke-width="1" fill="none" fill-rule="evenodd">
        <g id="target-marker" transform="translate(-116.000000, -119.000000)">
            <g id="Group-2" transform="translate(132.000000, 135.000000)">
                <g id="Group">
                    <g id="Oval">
                        <use fill="black" fill-opacity="1" filter="url(#filter-2)" xlink:href="#path-1"></use>
                        <use fill="#FFFFFF" fill-rule="evenodd" xlink:href="#path-1"></use>
                    </g>
                </g>
            </g>
            <g id="target" transform="translate(137.000000, 140.000000)" fill="#7ED321" fill-rule="nonzero">
                <path d="M12.6,0 L12.6,2.898 C7.532,3.542 3.542,7.532 2.898,12.6 L0,12.6 L0,15.4 L2.898,15.4 C3.542,20.468 7.532,24.458 12.6,25.102 L12.6,28 L15.4,28 L15.4,25.102 C20.468,24.458 24.458,20.468 25.102,15.4 L28,15.4 L28,12.6 L25.102,12.6 C24.458,7.532 20.468,3.542 15.4,2.898 L15.4,0 L12.6,0 Z M12.6,5.712 L12.6,8.4 L15.4,8.4 L15.4,5.726 C18.9,6.3 21.7,9.1 22.288,12.6 L19.6,12.6 L19.6,15.4 L22.274,15.4 C21.7,18.9 18.9,21.7 15.4,22.288 L15.4,19.6 L12.6,19.6 L12.6,22.274 C9.1,21.7 6.3,18.9 5.712,15.4 L8.4,15.4 L8.4,12.6 L5.726,12.6 C6.3,9.1 9.1,6.3 12.6,5.712 Z M14,12.6 C13.2268014,12.6 12.6,13.2268014 12.6,14 C12.6,14.7731986 13.2268014,15.4 14,15.4 C14.7731986,15.4 15.4,14.7731986 15.4,14 C15.4,13.2268014 14.7731986,12.6 14,12.6 Z" id="Shape"></path>
            </g>
        </g>
    </g>
</svg>